<?xml version="1.0" encoding="UTF-8" standalone="no"?>
<svg
   width="484.02039"
   height="484.87408"
   version="1.1"
   id="svg16"
   sodipodi:docname="logo_3.svg"
   inkscape:version="1.1.2 (0a00cf5339, 2022-02-04)"
   xmlns:inkscape="http://www.inkscape.org/namespaces/inkscape"
   xmlns:sodipodi="http://sodipodi.sourceforge.net/DTD/sodipodi-0.dtd"
   xmlns="http://www.w3.org/2000/svg"
   xmlns:svg="http://www.w3.org/2000/svg">
  <defs
     id="defs20" />
  <sodipodi:namedview
     id="namedview18"
     pagecolor="#ffffff"
     bordercolor="#666666"
     borderopacity="1.0"
     inkscape:pageshadow="2"
     inkscape:pageopacity="0.0"
     inkscape:pagecheckerboard="0"
     showgrid="false"
     showguides="true"
     inkscape:guide-bbox="true"
     inkscape:zoom="0.60283615"
     inkscape:cx="118.60603"
     inkscape:cy="175.83551"
     inkscape:window-width="2560"
     inkscape:window-height="1371"
     inkscape:window-x="0"
     inkscape:window-y="32"
     inkscape:window-maximized="1"
     inkscape:current-layer="svg16" />
  <g
     id="g1269"
     transform="translate(0.303,0.529)">
    <path
       fill="#427aa1"
       d="m 261.75707,198.09502 c -0.055,-0.428 -0.102,-0.858 -0.14,-1.288 -0.449,-4.765 -0.119,-9.748 -0.105,-14.539 l 0.049,-25.895 c 0.022,-14.291 -0.85,-29.038 0.472,-43.255 2.29,-24.632004 14.015,-49.857004 29.887,-68.750004 21.408,-25.213 51.903,-40.956 84.856,-43.80699999 6.102,-0.936 12.945,-0.433 19.111,-0.368 l 26.682,0.112 c 0.663,20.82699999 0.18,41.78599999 0.012,62.62599999 20.032,-0.443 40.07,-0.558 60.105,-0.342 0.179,9.11 0.024,18.248 -0.018,27.36 -0.092,19.742004 -0.09,38.312004 -7.452,57.058004 -10.635,27.078 -32.835,48.916 -59.441,60.387 7.58,-7.25 14.086,-14.738 19.819,-23.568 22.211,-34.213 26.109,-77.871 17.663,-117.018004 -0.619,15.42 -1.812,30.313 -6.108,45.222004 -11.368,39.445 -31.829,71.733 -65.47,95.823 -5.879,4.21 -12.062,8.532 -18.42,11.978 -2.531,1.372 -4.797,2.002 -7.65,2.262 -6.298,0.576 -63.944,0.409 -67.625,-0.701 l -0.046,-0.616 1.601,-0.586 c 32.407,-7.422 59.125,-18.617 83.564,-41.934 31.99,-30.522 48.395,-70.989 49.434,-114.937004 -25.435,-0.029 -50.521,5.91 -73.244,17.337 -34.848,17.712 -63.641,47.736004 -77.761,84.342004 -4.366,11.319 -5.912,21.551 -9.563,32.483 z"
       id="path4" />
    <path
       fill="#427aa1"
       d="m 63.042072,61.603016 c -0.481,-20.053 -0.13,-40.178 -0.077,-60.238 26.943,-0.36899999 54.872998,-2.17699999 80.672998,6.875 22.567,7.918 43.832,23.894 57.34,43.608 5.672,8.277 9.987,17.136 14.322,26.149 -7.508,-7.885 -14.763,-15.948 -23.646,-22.359 -37.538,-27.087 -76.242,-33.175 -121.099998,-25.839 33.867998,2.165 66.534998,13.374 94.595998,32.459 8.677,6.453 16.8,13.618 24.285,21.421 10.5,11.015 18.324,22.890004 26.041,35.888004 1.952,3.288 4.731,6.995 5.693,10.727 1.7,6.595 0.901,14.627 0.967,21.46 0.232,15.407 0.18,30.817 -0.154,46.221 -2.122,-6.607 -3.133,-13.568 -5.097,-20.237 -6.202,-21.053 -16.904,-42.557 -31.369,-59.103 -33.193,-37.968004 -73.006,-53.909004 -122.473998,-57.032004 z"
       id="path6" />
    <path
       fill="#427aa1"
       d="m 195.57907,221.71402 c -13.932,0.534 -27.996,0.247 -41.948,0.353 -17.578,0.134 -35.257,0.564 -52.826,0.053 -20.440998,-0.596 -50.298998,-22.017 -63.808998,-36.405 -35.9810005,-38.318 -38.0990005,-74.771 -36.69300049,-123.864004 20.85300049,-0.445 41.74900049,-0.118 62.60600049,-0.027 0.52,20.15 3.813,39.303004 10.867,58.248004 15.302,40.539 46.518998,73.056 86.401998,89.997 6.756,2.742 13.673,5.07 20.713,6.969 4.693,1.268 10.264,2.026 14.66,4.03 z"
       id="path8" />
    <path
       fill="#427aa1"
       d="m 61.903072,420.39102 c -20.407,0.619 -40.89,-0.179 -61.30900049,-0.113 -0.422,-45.932 -3.53000001,-83.712 31.78100049,-119.822 11.8,-12.068 24.274,-19.237 39.312,-26.451 -29.232,26.431 -42.875,56.437 -44.874,95.621 -0.721,14.13 1.393,28.407 3.175,42.388 2.608,-21.41 6.047,-41.192 13.521,-61.553 13.819,-33.636 36.419,-62.587 68.408998,-80.639 3.718,-2.098 7.523,-4.501 11.45,-6.172 2.296,-0.977 4.403,-1.512 6.898,-1.7 10.086,-0.763 20.65,-0.075 30.793,-0.013 12.532,0.075 25.552,-0.488 38.005,0.71 -11.057,2.648 -21.984,4.392 -32.808,8.105 -32.536,11.162 -62.161,35.222 -80.211998,64.422 -16.327,26.414 -23.087,54.429 -24.141,85.217 z"
       id="path10" />
    <path
       fill="#427aa1"
       d="m 284.88507,262.69102 c 7.654,-0.987 15.704,-0.575 23.425,-0.595 20.538,-0.204 41.078,-0.231 61.617,-0.08 28.98,0.074 56.044,14.367 76.17,34.666 20.8,21.224 33.81,48.859 36.915,78.414 1.589,15.869 0.837,32.212 0.788,48.157 -20.782,-0.421 -41.598,0.302 -62.371,-0.297 0.183,20.448 0.197,40.898 0.042,61.346 -27.328,0.235 -55.204,-0.222 -81.25,-9.531 -24.491,-8.754 -47.588,-26.207 -62.017,-47.974 -4.404,-6.645 -7.837,-13.864 -11.227,-21.059 6.634,6.681 13.181,13.603 20.368,19.694 22.218,18.832 51.127,29.658 80.041,31.741 16.031,1.155 32.815,0.007 48.806,-1.34 -5.753,-1.004 -11.612,-1.652 -17.402,-2.431 -46.739,-8.012 -83.178,-25.821 -113.598,-62.933 -6.925,-8.448 -20.149,-28.653 -23.116,-39.193 -1.259,-4.473 -0.714,-58.322 -0.05,-65.207 2.302,9.047 4.242,18.231 7.126,27.114 6.808,20.96 19.092,40.338 33.752,56.658 30.503,33.959 73.494,50.153 118.222,52.586 -0.358,-26.141 -6.141,-53.683 -18.98,-76.632 -19.334,-35.034 -50.717,-61.868 -88.328,-75.527 -9.554,-3.391 -19.247,-4.877 -28.933,-7.577 z"
       id="path12" />
    <path
       fill="#427aa1"
       d="m 61.903072,420.39102 c 9.132,-0.431 18.252,-0.725 27.297,-2.154 35.496998,-5.452 68.055998,-22.898 92.255998,-49.434 16.384,-17.82 28.472,-39.154 35.337,-62.369 2.063,-7.016 3.39,-14.196 5.166,-21.283 0.645,7.878 0.374,15.906 0.368,23.809 -0.01,14.293 -0.181,28.601 -0.017,42.893 0.338,36.229 -10.478,68.256 -36.094,94.482 -25.656,26.266 -59.519,38.217 -95.727998,38.48 -9.422,0.069 -19.033,0.166 -28.445,-0.29 -0.242,-21.377 -0.288,-42.756 -0.14,-64.134 z"
       id="path14" />
  </g>
</svg>
